<?xml version="1.0" encoding="UTF-8" standalone="no"?>
<svg
   enable-background="new 0 0 512 512"
   height="512px"
   id="Layer_1"
   version="1.1"
   viewBox="0 0 512 512"
   width="512px"
   xml:space="preserve"
   sodipodi:docname="icon.svg"
   inkscape:version="1.2.2 (732a01da63, 2022-12-09)"
   xmlns:inkscape="http://www.inkscape.org/namespaces/inkscape"
   xmlns:sodipodi="http://sodipodi.sourceforge.net/DTD/sodipodi-0.dtd"
   xmlns="http://www.w3.org/2000/svg"
   xmlns:svg="http://www.w3.org/2000/svg"><defs
     id="defs13"><marker
       style="overflow:visible"
       id="marker6387"
       refX="0"
       refY="0"
       orient="auto"
       inkscape:stockid="SemiCircleIn"
       markerWidth="3.8"
       markerHeight="6.8000002"
       viewBox="0 0 3.8 6.8"
       inkscape:isstock="true"
       inkscape:collect="always"
       preserveAspectRatio="xMidYMid"><path
         style="fill:context-stroke;fill-rule:evenodd;stroke:context-stroke;stroke-width:0.6pt"
         d="m 2.7752958,-0.02741555 c 0,1.65599995 -1.344,2.99999995 -3.00000001,2.99999995 v -6 c 1.65600001,0 3.00000001,1.344 3.00000001,3.00000005 z"
         id="path6385" /></marker><marker
       style="overflow:visible"
       id="SemiCircleIn"
       refX="0"
       refY="0"
       orient="auto"
       inkscape:stockid="SemiCircleIn"
       markerWidth="3.8"
       markerHeight="6.7999997"
       viewBox="0 0 3.8 6.8"
       inkscape:isstock="true"
       inkscape:collect="always"
       preserveAspectRatio="xMidYMid"><path
         style="fill:context-stroke;fill-rule:evenodd;stroke:context-stroke;stroke-width:0.6pt"
         d="m -0.22470421,-0.02741555 c 0,1.65599995 1.34400001,2.99999995 3.00000001,2.99999995 v -6 c -1.656,0 -3.00000001,1.344 -3.00000001,3.00000005 z"
         id="path180" /></marker><linearGradient
       id="SVGID_1_"
       gradientUnits="userSpaceOnUse"
       x1="250.71519"
       y1="2250.2634"
       x2="250.36549"
       y2="2249.9006"
       gradientTransform="matrix(1168.1589,0,0,-1161.3224,-291805.25,2613151.5)">
	<stop
   offset="0.18"
   style="stop-color:#0052CC"
   id="stop246" />
	<stop
   offset="1"
   style="stop-color:#2684FF"
   id="stop248" />
</linearGradient><linearGradient
       id="SVGID_2_"
       gradientUnits="userSpaceOnUse"
       x1="250.78709"
       y1="2250.3098"
       x2="250.38271"
       y2="2249.9143"
       gradientTransform="matrix(1168.1676,0,0,-1161.3223,-292339.59,2613686.5)">
	<stop
   offset="0.18"
   style="stop-color:#0052CC"
   id="stop253" />
	<stop
   offset="1"
   style="stop-color:#2684FF"
   id="stop255" />
</linearGradient><linearGradient
       id="logo-gradient"
       x1="64.010002"
       y1="65.260002"
       x2="32.990002"
       y2="89.480003"
       gradientUnits="userSpaceOnUse"><stop
         offset="0.18"
         stop-color="#0052cc"
         id="stop280" /><stop
         offset="1"
         stop-color="#2684ff"
         id="stop282" /></linearGradient></defs><sodipodi:namedview
     id="namedview11"
     pagecolor="#ffffff"
     bordercolor="#000000"
     borderopacity="0.25"
     inkscape:showpageshadow="2"
     inkscape:pageopacity="0.0"
     inkscape:pagecheckerboard="0"
     inkscape:deskcolor="#d1d1d1"
     showgrid="false"
     showguides="true"
     inkscape:zoom="0.5"
     inkscape:cx="-223"
     inkscape:cy="33"
     inkscape:window-width="1920"
     inkscape:window-height="1013"
     inkscape:window-x="-9"
     inkscape:window-y="-9"
     inkscape:window-maximized="1"
     inkscape:current-layer="Layer_1"><sodipodi:guide
       position="-538.0339,42.150121"
       orientation="0,-1"
       id="guide3982"
       inkscape:locked="false" /><sodipodi:guide
       position="133.91009,103.73663"
       orientation="-0.72210634,0.69178207"
       id="guide7853"
       inkscape:locked="false" /></sodipodi:namedview><g
     id="g3966" /><g
     class="header__svg-logo__icon"
     id="g293"
     transform="matrix(7.9403904,0,0,7.6453884,8.299521,-273.97832)"><path
       class="header__svg-logo__icon--path--3"
       d="m 2,41.25 a 2,2 0 0 0 -2,2.32 l 8.49,51.54 a 2.72,2.72 0 0 0 2.66,2.27 h 40.73 a 2,2 0 0 0 2,-1.68 l 8.51,-52.11 a 2,2 0 0 0 -2,-2.32 z M 37.75,78.5 h -13 L 21.23,60.12 H 40.9 Z"
       id="path289"
       style="fill:#2684ff" /><path
       class="header__svg-logo__icon--path--4"
       d="M 59.67,60.12 H 40.9 L 37.75,78.5 h -13 L 9.4,96.73 a 2.71,2.71 0 0 0 1.75,0.66 h 40.74 a 2,2 0 0 0 2,-1.68 z"
       id="path291"
       style="fill:url(#logo-gradient)" /></g><path
     style="fill:none;fill-opacity:1;stroke:#ffffff;stroke-width:22.7;stroke-linecap:round;stroke-dasharray:none;stroke-opacity:1"
     d="m 133.91009,408.26337 17.25712,-18.0136 17.25712,-18.01359 17.25714,-18.0136 -4.40606,-38.76705 60.58351,23.49332 -26.06925,-59.52051 60.58351,23.49332 -26.06925,-59.52051 60.58351,23.49333 -26.06925,-59.52053 60.5835,23.49335 -13.03425,-29.76066 17.25692,-18.01338 17.25713,-18.0136 17.25713,-18.01359"
     id="path6715"
     sodipodi:nodetypes="cccccccccccccccc" /><path
     style="fill:none;fill-opacity:1;stroke:#fcfcfc;stroke-width:18;stroke-linecap:round;stroke-dasharray:none;stroke-opacity:1;marker-end:url(#marker6387)"
     d="m 366.88149,165.07966 15.82209,-16.51564"
     id="path6979"
     sodipodi:nodetypes="cc" /><path
     style="fill:none;fill-opacity:1;stroke:#fcfcfc;stroke-width:18;stroke-linecap:round;stroke-dasharray:none;stroke-opacity:1;marker-end:url(#marker6387)"
     d="m 366.88149,165.07966 17.25713,-18.01359"
     id="path7958"
     sodipodi:nodetypes="cc" /><path
     style="fill:none;fill-opacity:1;stroke:#ffffff;stroke-width:18;stroke-linecap:round;stroke-dasharray:none;stroke-opacity:1;marker-start:url(#SemiCircleIn);marker-end:"
     d="m 133.91009,408.26337 17.25712,-18.0136 17.25712,-18.01359"
     id="path8330"
     sodipodi:nodetypes="ccc" /><path
     style="fill:none;fill-opacity:1;stroke:#ffffff;stroke-width:18;stroke-linecap:round;stroke-dasharray:none;stroke-opacity:1;marker-start:url(#SemiCircleIn)"
     d="m 132.51618,409.71838 18.65103,-19.46861 17.25712,-18.01359"
     id="path8390"
     sodipodi:nodetypes="ccc" /><path
     style="fill:none;fill-opacity:1;stroke:#000000;stroke-width:17;stroke-linecap:round;stroke-dasharray:none;stroke-opacity:1;marker-start:url(#SemiCircleIn);marker-end:url(#marker6387)"
     d="m 133.91009,408.26337 17.25712,-18.0136 17.25712,-18.01359 17.25714,-18.0136 -4.40606,-38.76705 60.58351,23.49332 -26.06925,-59.52051 60.58351,23.49332 -26.06925,-59.52051 60.58351,23.49333 -26.06925,-59.52053 60.5835,23.49335 -13.03425,-29.76066 17.25692,-18.01338 17.25713,-18.0136 17.25713,-18.01359"
     id="path782"
     sodipodi:nodetypes="cccccccccccccccc" /></svg>
